<svg xmlns="http://www.w3.org/2000/svg" width="105" height="40" viewBox="0 0 105 40" fill="none">
  <path fill-rule="evenodd" clip-rule="evenodd" d="M59.8863 16.3234H59.8874L59.8771 16.3517L59.8704 16.3696C59.867 16.3787 59.865 16.3838 59.8641 16.3875C59.8635 16.3896 59.8633 16.3912 59.8633 16.3928C59.8599 18.5624 59.8565 20.732 59.8599 22.9016C59.8599 22.9604 59.9233 23.0491 59.9789 23.0737C61.0397 23.5429 61.8859 24.2856 62.5607 25.2105C63.6661 26.7257 64.7599 28.251 65.8116 29.8039C67.2174 31.8798 68.6057 33.9675 69.994 36.0552L69.9945 36.0559L69.9951 36.0568L69.996 36.0581L69.9988 36.0624L70.0017 36.0667C70.529 36.8597 71.0564 37.6527 71.5847 38.4451C71.6663 38.5681 71.7378 38.6568 71.9183 38.6563C74.1443 38.6505 76.3706 38.6504 78.597 38.6503C79.3383 38.6503 80.0796 38.6503 80.8208 38.65C80.8589 38.65 80.8969 38.6453 80.9416 38.6397L80.9671 38.6365C80.9754 38.6355 80.984 38.6345 80.9929 38.6335C81.0012 38.6326 81.0097 38.6316 81.0186 38.6307C80.8727 38.3963 80.7286 38.164 80.5855 37.9333C80.2607 37.4097 79.9412 36.8946 79.618 36.3821C79.1887 35.7012 78.7597 35.0201 78.3307 34.339C76.978 32.1913 75.6252 30.0436 74.262 27.9029C72.6301 25.3403 70.582 23.1972 67.9239 21.6873C67.8976 21.6724 67.8695 21.6603 67.8415 21.6482L67.8414 21.6482C67.8297 21.6431 67.818 21.6381 67.8063 21.6328C69.3475 21.3512 70.8057 20.9789 72.1861 20.3332C74.3167 19.3364 75.9203 17.7995 76.923 15.6545C77.5892 14.229 77.8666 12.7138 77.8997 11.147C77.9424 9.11919 77.5695 7.18542 76.6014 5.38956C75.3362 3.04299 73.4624 1.44919 70.8729 0.756209C69.2583 0.324123 67.6048 0.137015 65.9421 0.0815571C64.5701 0.0358898 63.1968 0.025627 61.8237 0.0153653C61.2538 0.0111066 60.684 0.00684806 60.1143 5.90646e-05C60.0566 -0.000611144 59.9986 0.00454018 59.9426 0.00952593C59.918 0.011715 59.8937 0.0138722 59.87 0.0154907V6.52812C59.883 6.5291 59.8955 6.53015 59.9076 6.53121C59.9172 6.53206 59.9266 6.53291 59.9358 6.53375C59.977 6.5375 60.0135 6.54082 60.05 6.54114C60.448 6.54486 60.846 6.54768 61.2442 6.5505L61.2445 6.55051L61.2448 6.55051L61.2451 6.55051H61.2451C62.0859 6.55647 62.9269 6.56243 63.7674 6.57683C63.908 6.57928 64.0488 6.58055 64.1896 6.58182C64.9356 6.58856 65.6829 6.5953 66.4149 6.77744C67.9398 7.15745 69.0764 8.00329 69.6125 9.53585C69.9206 10.4179 69.935 11.3298 69.829 12.2499C69.601 14.2261 68.1553 15.735 66.1994 16.035C64.7412 16.2587 63.2711 16.2944 61.8004 16.3214C61.3619 16.3294 60.9231 16.3273 60.4843 16.3252H60.4843H60.4842H60.4842C60.2852 16.3243 60.0863 16.3234 59.8874 16.3234L59.8877 16.3224L59.8863 16.3234ZM0.00184139 26.7243L0.0690406 26.7177L0.0960133 26.7151C2.58316 26.4722 5.05608 26.2308 7.53743 25.9889C7.5777 26.1525 7.61606 26.3151 7.65416 26.4765L7.65417 26.4766C7.73688 26.8271 7.81839 27.1725 7.91565 27.5132C8.29435 28.8403 8.8612 30.0705 9.80819 31.0963C10.7504 32.1167 11.9138 32.7672 13.252 33.0744C15.5463 33.6015 17.8305 33.5595 20.0446 32.7074C21.5575 32.1253 22.7008 31.0794 23.2489 29.5193C23.7428 28.1131 23.6108 26.7551 22.5649 25.6026C21.9875 24.9665 21.2388 24.5547 20.4401 24.2904C19.1072 23.8487 17.7556 23.4614 16.403 23.0824C15.6394 22.8686 14.8728 22.6653 14.1062 22.4621C12.9661 22.1598 11.8261 21.8575 10.6961 21.5204C9.07047 21.0353 7.49376 20.393 6.07975 19.4343C3.56901 17.7325 1.93806 15.4172 1.49936 12.368C1.01891 9.02901 1.98029 6.11822 4.31057 3.69594C5.73945 2.21016 7.53551 1.32525 9.49141 0.753798C11.1123 0.28024 12.773 0.0381565 14.4577 0.0241715C15.2768 0.0174401 16.096 0.0492333 16.9152 0.0810229L16.9153 0.0810238C17.2698 0.0947819 17.6243 0.108539 17.9788 0.119173C18.0037 0.11979 18.0286 0.123571 18.0576 0.127983C18.0739 0.130462 18.0916 0.13314 18.1113 0.135569V6.75044C17.9869 6.73015 17.8628 6.7079 17.7388 6.68566L17.7388 6.68566C17.4736 6.63812 17.2087 6.59062 16.9416 6.56236C15.1109 6.36754 13.2966 6.41673 11.5515 7.07595C11.0412 7.26884 10.5416 7.53263 10.0952 7.84705C8.4657 8.99574 8.37403 11.189 9.87635 12.5084C10.5637 13.1121 11.3969 13.4473 12.2354 13.7636C13.8683 14.3795 15.5564 14.8077 17.2507 15.2132C19.3026 15.7046 21.3362 16.2563 23.3151 16.997C23.3488 17.0096 23.3837 17.0194 23.4276 17.0316L23.4802 17.0465L23.5009 17.0525V0.0130799H31.2904V15.192H46.4921V0.0125975H54.2528V38.6312H46.496V21.7794H31.2865V22.0659C31.2865 22.7141 31.2864 23.3624 31.2862 24.0107C31.2859 25.3073 31.2856 26.6039 31.2865 27.9005C31.2894 30.8513 30.3199 33.4419 28.3971 35.663C27.0244 37.2491 25.2778 38.2724 23.3118 38.9399C21.3957 39.5904 19.4153 39.8643 17.4038 39.9617C15.8035 40.0394 14.2072 40.0042 12.617 39.8074C10.0045 39.4843 7.53167 38.76 5.37563 37.1768C3.15527 35.5459 1.73071 33.3416 0.859075 30.7495C0.432858 29.4822 0.172232 28.1782 0.00184139 26.8545C-0.000590905 26.8349 -0.000134346 26.8148 0.000527172 26.7856C0.000909973 26.7688 0.00136141 26.7488 0.00136141 26.7243H0.00184139ZM105 6.52777V0.0151367H83.8206V6.52777H105ZM105 15.124V21.6154H83.8188V15.124H105ZM83.8158 32.1523V38.6336H104.992V32.1523H83.8158Z" fill="#6D3DF5"/>
</svg>